# xmcd
#
# Track frame offsets:
#	150
#	19520
#	36580
#	50640
#	72632
#	85866
#	104014
#	125858
#	141116
#	156290
#
# Disc length: 2294 seconds
# Revision: 0
# Processed by: cddbd v1.5.2PL0 Copyright (c) Steve Scherf et al.
# Submitted via: dBpowerAMP V12.0
#
DISCID=9708f40a
DTITLE=Jesse Winchester - Nothing but a Breeze [Bearsville] (L)
DYEAR=1977
DGENRE=Country
TTITLE0=Nothing But A Breeze
TTITLE1=My Songbird
TTITLE2=Seems Like Only Yesterday
TTITLE3=You Remember Me
TTITLE4=Twigs And Seeds
TTITLE5=Guilding The Lily
TTITLE6=Bowling Green
TTITLE7=Pourquoi M'aimes-Tu Pas
TTITLE8=It Takes A Young Girl
TTITLE9=Rhumba Man
EXTD=
EXTT0=
EXTT1=
EXTT2=
EXTT3=
EXTT4=
EXTT5=
EXTT6=
EXTT7=
EXTT8=
EXTT9=
PLAYORDER=
